<?xml version="1.0" encoding="utf-8"?>
<!-- Generator: Adobe Illustrator 22.0.0, SVG Export Plug-In . SVG Version: 6.00 Build 0)  -->
<svg version="1.1" id="Layer_1" xmlns="http://www.w3.org/2000/svg" xmlns:xlink="http://www.w3.org/1999/xlink" x="0px" y="0px"
	 viewBox="0 0 1366 768" style="enable-background:new 0 0 1366 768;" xml:space="preserve">
<style type="text/css">
	.st0{fill:#6A3166;}
	.st1{fill:#50104E;}
	.st2{fill:#340242;}
	.st3{fill:#310141;}
	.st4{fill:#FBEDE4;}
	.st5{fill:#7E2C55;}
	.st6{fill:#682055;}
	.st7{fill:#FAEEE6;}
	.st8{fill:#F9B3B3;}
	.st9{fill:#E90F02;}
	.st10{fill:#7C4A75;}
	.st11{fill:#E29092;}
	.st12{fill:#EFD9D9;}
	.st13{fill:#52164C;}
	.st14{fill:#B96A78;}
	.st15{fill:#E08384;}
	.st16{fill:#3A033D;}
	.st17{fill:#D4AAB4;}
	.st18{fill:#D0A4A9;}
	.st19{fill:#EB5C52;}
	.st20{fill:#7C4069;}
	.st21{fill:#EA3017;}
	.st22{fill:#E84639;}
	.st23{fill:#E76B68;}
	.st24{fill:#EF7670;}
	.st25{fill:#F9ABA9;}
	.st26{fill:#F89892;}
	.st27{fill:#F4D5CF;}
	.st28{fill:#CE848B;}
	.st29{fill:#E99D9E;}
	.st30{fill:#D7B4BA;}
	.st31{fill:#976F8B;}
	.st32{fill:#83486E;}
	.st33{fill:#663563;}
	.st34{fill:#A76075;}
</style>
<g>
	<path class="st0" d="M599.5,261.2c0.5-0.5,1-0.9,1.6-1.4c0.6-0.5,1.2-0.7,2-0.9c12-1.7,12-1.7,14.3,11c0.2,1.2,0.1,2.4-0.3,3.6
		c-1.1,2.1-3.3,2.2-5.1,2.9c-1.6,0.6-3.8,0.7-3.8,3.1c0,2.1,2.1,2.8,3.6,3.6c2.3,1.3,4.7,1.6,7.3,1.2c0.7-0.1,1.4-0.1,2.1,0
		c2.1,0.4,4.2,0.7,6.3,0.9c11,2.6,22.3-0.2,33.3,1.9c1.8,7.3-3.4,4.5-6.6,5.6c18.3-2.8,36.8-1.5,54.4-7.9
		c10.8-3.9,10.9-5.3,2.6-13.5c-0.8-1.5-1.1-3.1-0.9-4.9c0.8-3.2,1-6.8,4.5-8.5c13.1,1.6,25.7,5.3,37.5,11.7c4.6,2.5,9,5.7,8.9,11.8
		c-0.1,6.2-4.9,9-9.3,11.6c-7.5,4.5-15.7,7.5-24.2,8.8c-7.1,1.1-9.4,4.6-8.4,11.6c0.3,1.8-0.2,3.7-0.4,5.6c-0.9,0-1.6-0.4-2.1-1.3
		c-2.6-12.4-2.6-12.6-14.8-9.5c-11,2.8-22.1,1.6-33.1,1.9c-12.3,0.3-24.7-0.1-37-0.3c-2.5,0-5.1-0.3-7.1-2.1c-2.5-4,0.4-4.8,3-4.6
		c3.5,0.4,7,0.8,10.9,1.5c-10.1-2.7-20.1-2-29.9-3.3c-12.2-1.6-23.3-6.4-34.4-11c-3.7-1.6-7.3-4.7-6.8-9.6c0.5-4.4,4-7,7.5-9.3
		C582.4,266.4,591.6,265.5,599.5,261.2z"/>
	<path class="st1" d="M719.7,338.6c1.3,6,2.8,12,2.8,18.2c1.6,5.7,0,9.9-5.9,10.2c-16,0.7-29.9,8.9-44.8,13.6
		c-14.4,4.5-29.5,7.2-43,14.7c-3.1,1.7-6.3,3.2-9.5,4.9c-6,1.6-11-3-16.8-2.9c-3.5-1.6-4.8-4.5-4.2-8.4c0.6-3.7,3.6-4.1,6.3-4.6
		c2.5-0.5,5-1.1,7-2.8c9.5-8.1,21-11.1,32.2-15.2c10.3-3.8,21-6.7,30.7-12.4c-11,1.6-22,0.9-33,0.4c-1.7-0.1-5.1-0.1-3.5-4.1
		c3.7-2.3,7.7-1.2,11.6-1.5c4.4-0.1,8.8,0.2,13.3,0c3.4-0.1,6.8,0,10.1,0c4.9-0.1,9.8,0.9,14.6-1c2.5-0.4,5.3,1.3,7.7-0.9
		C703.8,345.4,712.9,346,719.7,338.6z"/>
	<path class="st2" d="M637.4,351.2c8.5,3,17.3,0.8,26,1.4c4.3,0.3,8.5,0.1,12.8,0.1c-2.8,5.7-7.7,7-13,9c-15,5.5-30.7,9.1-44.8,17.2
		c-5.5,3.2-9.9,7.9-17.1,8.4c-3.5,0.3-2.3,5.8,0.9,8.5c16.5,10.6,34.8,14,53.8,14.6c7,1.4,13.9,1.3,20.9,0.1
		c5.2-0.9,10.5-1,15.7-1.1c2.5,0,5.3-0.2,5.2,3.8c-25.5,5.4-51,4.7-76.3-1.1c-8.7-2-16.7-5.8-23.7-11.7c-4-3.3-5.2-7-3.6-12.5
		c3.6-12.1,7-24.4,8.5-37.1c1.5-9,2.2-9.6,10.5-7.6c6.3,1.5,12.4,3.6,18.9,4.3C634.5,347.7,636.7,348.4,637.4,351.2z"/>
	<path class="st3" d="M623.8,306c2.7,1.9,5.8,1.7,8.8,1.7c17.6,0,35.2-0.3,52.8,0.2c9,0.3,17.3-2.8,26.1-3.5
		c4.9-0.4,6.8,0.5,6.1,5.9c-0.4,2.9-0.1,5.9-0.1,8.8c2.1,4.6-1.8,4.4-3.8,4.5c-7.8,0.3-15.3,2.7-23,3.9c-11.1,0.6-22.2-0.3-33.3,0
		c-6.4-0.1-12.7,0-19.1,0c-1.3,0.1-2.6,0-3.9-0.2c-8.4-1.9-17.1-2-25.4-4.9c-1.6-0.6-2.6-2.1-3.7-3.3c-2.3-4.2-1-8.7-1-13.1
		C609.5,301,615.8,301,623.8,306z"/>
	<path class="st4" d="M616,271.1c-3.3-12-3.3-12-14.8-11.3c3.2-3.3,9.3-1.1,11.2-4.9c1.9-3.9-2.5-8.1-2.5-12.8
		c-0.3-17,0-33.9,3.6-50.6c1.8-8.5,9.4-10.7,15.1-4.5c11.8,13,19.3,28.5,23.4,46c1.5,6.3,3.5,12.5,5.3,18.7c0.4,0.7,0.6,1.5,0.6,2.4
		c-2.3,8.2-3.5,8.4-9.7,1.8c-2.1-3.1-2.6-6.8-3.3-10.4c-2.2-11.2-7.6-20.8-13.9-29.8c-3.3-4.7-5.3-3.1-6.3,1.5
		c-2.2,9.9-4.1,19.9-2.7,30.1c0.7,5.3,0.6,10.7,2,15.8c0.4,1.7,0.6,3.4,0.6,5.1c0,0.5,0,1.1,0,1.6c-0.3,3.6,0.6,8.5-4,9.1
		C615.5,279.3,618.3,273.2,616,271.1z"/>
	<path class="st5" d="M697.9,413.2c-6.5-3.3-13.2-1-19.8-0.5c-7.6,0.6-15.2,1.9-22.7-0.7c4.8-4.2,10.6-1,15.7-2.7
		c-4.6-2.2-11.2,0.8-14.5-5.7c1.4-8.4,6.5-12.1,14.2-12.5c7.4-0.4,14.1-3.8,20.7-6.8c11.4-5.2,23.7-6.1,35.5-9.7
		c0.3,0.4,0.7,0.8,0.9,1.2c6.5,18.5,4.1,24.5-13.4,32.2C709.1,410.5,703.8,413.1,697.9,413.2z"/>
	<path class="st6" d="M727,374.6c-1.7,4-5.7,4.9-8.9,4.9c-12.5-0.1-23,6.7-34.4,10.2c-2.4,0.7-4.7,2.4-7.1,2.5
		c-8.4,0.5-16.2,1.7-19.5,11.5c-12,4.1-23.9,3.5-35.6-1.1c-1.4-0.5-2.6-1.7-2.2-3.6c10.5-7.9,22.4-13.1,34.7-15.8
		c10.7-2.3,20.7-6.1,30.9-9.7c10.2-3.6,19.9-8.4,31-8.3c5.2,0,6.8-3.6,6.7-8.5C724,362.8,725.5,368.7,727,374.6z"/>
	<path class="st7" d="M670.8,248.5c5.1-23.7,8.8-48,27.2-65.5c4.2-4,7.5-4.2,10.3,1c4.7,8.6,8.3,17.5,8,27.8
		c-0.4,12.9,1.8,25.8-0.1,38.8c-0.3,2.1-1,4.1-1.6,6.1c-0.6,0.9-1.3,1.7-1.6,2.7c-0.7,2.4-1.1,3.8-4.5,3.3c-3.7-0.6-3-3.1-3.2-4.9
		c-0.5-6.6-0.5-13.3-0.2-20c0.3-7.6-1-14.8-3.1-22c-0.5-1.8-0.6-4-2.7-4.4c-2.3-0.5-3.6,1.4-4.8,3.1c-4.8,6.9-8.4,14.6-10.9,22.8
		c-0.6,2-1.3,4-2.3,5.9C679.3,248.1,674.2,246.3,670.8,248.5z"/>
	<path class="st8" d="M679.8,243.7c2.7-10.8,6.8-21,12.9-30.3c1.9-2.9,4.2-6.3,7.4-5.7c3.7,0.6,3.2,5.2,4.3,8.4
		c4.3,12.2,2.2,24.7,2.9,37.1c0.2,2.7-2,6.3,1.4,8c3.8,1.9,3.1-4.3,6-4.4c0,0.5,0,1,0,1.5c-0.9,2.7-1.9,5.3-2.8,8
		c-2.1,5.8-5.2,4.5-8.6,1.3c-0.8-0.9-1.3-1.9-1.2-3.2c2.5-9.7,2-10.5-7.4-10.5c-6.2,0-12.4,0-17.4,4.9c-1.2-0.2-2-1-2.6-2.1
		C673.3,250.9,679,248.4,679.8,243.7z"/>
	<path class="st9" d="M692,325.4c6.6-2.3,13.3-3.5,20.3-3.8c1.5-0.1,4.8,1.3,5.2-2.5c0.4,0.2,0.8,0.2,1.1,0c0.3,6.5,0.7,12.9,1,19.4
		c0.6,8.8-7.2,6.3-10.9,8.1c-3.8,1.9-9,2.4-13.7,1.1C688.3,341.9,687.2,333.8,692,325.4z"/>
	<path class="st10" d="M623.8,306c-6.4-0.2-12.9-3.6-19.3,0.3c-0.7-4.1-4.2-3.3-6.6-3.9c-9.3-2.5-18.4-5.2-26.7-10.4
		c-9.9-6.3-10.1-13.3-0.4-19.9c8.7-5.9,18.4-9.5,28.7-10.8c-1.8,7.8-9,3.2-13.1,6.2c-4.6,3.4-10.1,5.3-14.6,9
		c-6,4.9-2.8,9.4,1.5,11.4c10.7,5.1,21.7,9.2,33.7,11.1c11.9,1.9,24.1,1.6,36.8,5.5c-4.1,2.4-7.4,1.3-10.7,1.1
		C630,305.5,626.7,302.8,623.8,306z"/>
	<path class="st11" d="M605.5,319.3c1.1,0.6,2.2,1.1,3.2,1.7c2.4,0.9,1.7,2.7,1.4,4.6c-1.1,6.2-2.3,10.6,6.7,12.9
		c6.4,1.6,12.7,3.7,19.4,4.2c1.4,0.1,2.8,0.3,4.2,1c1.9,1.6,4.2,1.5,6.4,2.2c2.1,0.7,4.5,1.6,2.9,5c-4.1,0.1-8.1,0.3-12.2,0.4
		c-9.8-2.3-19.5-4.7-29.3-7c-5.8-1.4-2.7,5.2-5.3,6.7C603.7,340.3,604.6,329.8,605.5,319.3z"/>
	<path class="st12" d="M679.8,243.7c1,5.2-3.9,8.2-4.4,12.8c0.5,2.3-0.9,2-2.1,1.6c-2-0.5-3.4-2.3-5.5-2.6c-3.3-0.6-6.8,0.4-10-1.5
		c-0.3-0.3-0.5-0.6-0.8-0.9c0.1-0.5,0.1-1,0.1-1.5c4.5-1.5,10.2,3.1,13.6-3.2C672.5,244.3,677.4,246.7,679.8,243.7z"/>
	<path class="st13" d="M711.4,270.8c2,1,4.3,1.6,6,3.1c4.8,4.2,4.1,7.6-1.7,10.2c-20.2,9.2-41.6,9.2-64.2,9.2
		c3.6-2.7,9.7,0.3,8.5-6.6c-3.3-4.5-1.4-9.7-2-14.6c1-9.3,1.9-10.1,9.7-8.3c3.5,4.7,1.6,10.3,2.3,15.4c-0.1,8.4-0.1,8.1,7.6,7.5
		c8.5-0.7,17.1-0.9,25.5-2.7c3.5-2.5,4.3-6.5,5.4-10.4C709,272.2,709.5,270.7,711.4,270.8z"/>
	<path class="st14" d="M659.9,272.9c0,4.6,0.1,9.2,0.1,13.9c-1.1,1-2.4,3.2-3.1,3c-9.9-3.1-20.2,0.8-30-2.7
		c-2.3-2.8-2.1-6.4,0.8-7.3c7.6-2.4,15.3-5.4,23.5-4.4c1.2,0.2,2.1,1.3,3,2.2c4.1,0.8,2-4,4-5.1C659,272,659.5,272.1,659.9,272.9z"
		/>
	<path class="st15" d="M654,278.8c-2.4-1.5-4.2-3-7.9-1.2c-4.3,2-9.7,2.5-14.3,2.8c-5.8,0.4-4.8,3.3-5,6.6c-2-0.3-4.3,0.5-6-1.3
		c2.2-3.2,2.6-7.2,3.5-10.9c9.1-3.8,18.1-7.6,27.7-9.8C654.5,269.3,656.1,273.8,654,278.8z"/>
	<path class="st16" d="M619.4,285.2c-6.4,4.4-10-1.3-14-4.6c-1.8-1.4-0.5-3.5,1.3-4.3c2.9-1.4,6-2.7,9.4-2.1
		C618,277.6,621.3,280.5,619.4,285.2z"/>
	<path class="st17" d="M619.4,285.2c-1.1-3.7-2.3-7.3-3.4-11c0-1,0-2.1,0-3.1c2.9,1.1,1.5,5.5,4.5,6.7c3.2-2.7,1.1-6.7,1.9-10
		c4.1,0.5,3.6,3.3,2.9,6.3c-1.3,4,3.4,10.5-4.4,11.6C620.3,285.5,619.9,285.4,619.4,285.2z"/>
	<path class="st18" d="M711.4,270.8c-0.5,1.1-1,2.3-1.5,3.4c-2.2,2.4-1.8,8.8-5.8,7.4c-4.5-1.7-2.6-7.2-1.9-11.2
		c0.3-1.6,0.8-3,2-4.2c2.6,2,5.2,4.1,7.7,0C711.6,267.7,711.5,269.2,711.4,270.8z"/>
	<path class="st19" d="M640.4,344.6c-1.5,0-3-0.1-4.4-0.1c-1-1.4-2.7-1.1-4.1-1.8c-5-2.4-5.8-4.8-1.5-8.6c2.9-2.6,3.5-5.4,3.9-8.8
		c1.1,0.1,2.2,0.1,3.3,0.2c6.2,0.9,12.4,1.3,18.6,0.9c0.7,0,1.4,0.1,2.1,0.4c2.4,0.5,4.1,1.2,3.1,4.7c-2.8,10.3-2.6,10.3,7.7,11.4
		c1.2,0.1,2.5,0.3,3.7,0.6c0.7,0.2,1.3,0.7,1.8,1.2c1.1,2.2,2.2,4.3-0.8,5.9c-3.5,0.1-7.1,0.1-10.6,0.2
		C655.7,348.4,648,346.7,640.4,344.6z"/>
	<path class="st20" d="M619.3,399.1c6.1,4.1,12.8,5.3,19.8,5.3c6,0,12-0.4,18-0.7c4.9,3.2,11.2,1.3,16.7,5.5
		c-5.8,4.8-12.6,1.3-18.4,2.7c-14.9,0.6-29.3-1.9-43-8.2c-3.9-1.8-7.5-4.1-10-7.9C608.5,394,613.4,399.5,619.3,399.1z"/>
	<path class="st21" d="M692,325.4c-1.7,7.9-2.2,15.5,3,22.4c-1.8,2.2-3.7,3.4-5.6,0.1c-5.5,0.6-10.5-1.6-15.6-3.3l0,0
		c-2.8-3.4-1.4-7-0.4-10.4c1.1-3.7,0.3-5.5-3.7-5.2c-4.3,0.4-8.3-0.8-12.4-2l-0.3-0.2l0.1-0.5C668.8,324.9,680.4,325.6,692,325.4z"
		/>
	<path class="st22" d="M673.8,344.6c5.8-1.8,10.7,0.9,15.6,3.3c-4.5,5.4-10.3,2.2-15.5,2.8C675.3,348.7,673.7,346.6,673.8,344.6z"/>
	<path class="st23" d="M640.4,344.6c8.2-0.1,16.1,0.5,22.8,6.3c-4.6-0.1-9.1-0.1-13.7-0.2c-0.5-2.9-2.3-4.1-4.9-3.4
		C642.2,347.9,640.7,347.5,640.4,344.6z"/>
	<path class="st24" d="M634.3,325.4c-0.9,2.6,7.1,7.3-1.9,8.5c-1.5,0.2-5.9,5.9,0.9,7.9c1.3,0.4,3.1,0.4,2.7,2.7
		c-9.5,1.6-17.9-3.3-26.4-6.1c-5.1-1.7-1.5-8.6-1.2-13.2c0.1-1.3,1.3-2.7,0.4-4.3C617.2,322.5,625.8,323.9,634.3,325.4z"/>
	<path class="st22" d="M657.2,326.4c0,0-0.1,0.5-0.1,0.5c-6.6,1.8-13.1,0.5-19.5-1.3C644.1,325.4,650.7,325,657.2,326.4z"/>
	<path class="st25" d="M622.1,263.1c-4.3-16-3.2-31.9,0.4-47.8c0.5-2.4,1.6-5.4,4.5-5.6c2.4-0.2,3.4,2.1,4.9,4.1
		c6.8,9.5,12.7,19.5,14.5,31.5c-3.5,3.8-8.3,3.2-12.6,4.5c-5,1.5-10.1,2.2-9.1,9.8C625,261.2,623.8,262.6,622.1,263.1z"/>
	<path class="st26" d="M622.1,263.1c0.2-0.5,0.7-1,0.6-1.4c-2-13.5,7.8-13,15.7-14.8c2.6-0.6,5.3-1,8-1.5c1,3.2,2,6.4,3,9.6
		c0.7,3.1,3.9,5.9,1.6,9.6c-7.4,6.8-16.3,8.9-25.7,9.6c-1.4-1.9-0.3-5-2.9-6.3C622.3,266.3,622.2,264.7,622.1,263.1z"/>
	<path class="st27" d="M651,264.6c-0.5-3.2-1.1-6.4-1.6-9.6c3.9,6.1,6,3.4,7.6-1.8c0,0,0.3,0.4,0.3,0.4c2,2.5,1.9,5.7,2.6,8.6
		c-0.9,3.4,0,7-1.2,10.4c-0.2,2,0,4.2-0.7,5.9c-0.8,1.7-2.5,4.7-4,0.2C653,274.1,652,269.3,651,264.6z"/>
	<path class="st28" d="M704.1,266.2c1.3,4.8-3.3,9.7,0.5,14.8c2.7-1.5,2.4-5.7,5.3-6.8c-0.5,4.1-1.3,8-4.3,11
		c-0.8,1.1-1.8,1-2.9,0.7c-5.4-5.4-11.8-8.4-19.3-8.8c-2.2-0.1-4.4-0.6-6.3-2.1c-0.4-3.3-2.9,0.5-3.8-1.2c-0.8-1.4-0.7-2.8-0.3-4.2
		c5.4-9.9,8.5-11.6,18.5-8.8c3.8,1,8,1,11.2,3.8C703.1,265.1,703.6,265.6,704.1,266.2z"/>
	<path class="st29" d="M702.6,264.5c-4.2,0-8.2-1.5-12.3-2.4c-6.5-1.6-12.9-0.1-16.4,7.2c-2.2-4.7,0.5-7.9,3-11.2
		c2.2-4.5,5.2-7,10.5-6.3c3.4,0.5,7-0.3,10.5-0.1c2.5,0.2,6.2-1.6,7.2,2.2C706,257.6,707,262,702.6,264.5z"/>
	<path class="st30" d="M676.9,258.1c0.5,4.2-3,7.2-3,11.2c0,1.6-0.1,3.2-0.1,4.8c-3.6,2.4-4.7,2.1-5.1-2.1c-0.3-3.7,0-7.4-1.3-11
		c-0.2-1.8-0.1-3.6,0.4-5.4c0.3-0.8,0.8-1.6,1.3-2.3c2.6-0.2,2.9,4.9,6.2,3.1C675.9,257,676.4,257.6,676.9,258.1z"/>
	<path class="st31" d="M669.1,253.4c-0.1,0.6-0.1,1.1-0.2,1.7c-3.4,2.2-8.1,2.1-10.4,6.3c-1.9-2.4-1.3-5.1-1.2-7.9
		C661.3,253.6,665.2,253.5,669.1,253.4z"/>
	<path class="st32" d="M702.7,285c0.9,0.1,1.9,0.1,2.8,0.2c-6.2,2.7-12.9,2.6-19.4,3.3c-3,0.3-6-0.1-8.9,0.4
		c-9.4,1.5-9.4,1.6-9.1-8.4c3.1,0.5,2.4,2.6,2,4.6c2.3-1.9,3.8-5.1,7.4-5.2C685.6,282.9,694.6,281.3,702.7,285z"/>
	<path class="st31" d="M676.8,280.5c-5.6,7.1-6,7.1-8.8,0c-0.1-5.3-0.2-10.6-0.3-16c-1.2-2.1-1.7-4,1.3-4.9
		c0.1,3.7,0.2,7.4,0.4,11.1c0.2,2.7,0.5,5.7,4.4,3.4c1,1.3,2.1-5.5,3,0.1C678.3,276.3,678.6,278.4,676.8,280.5z"/>
	<path class="st33" d="M669,259.6c-1.4,1.3-1.2,3.2-1.3,4.9c-6.6-1.4-8.2,2.4-7.8,8.3c-0.4-0.2-0.7-0.3-1.2-0.2
		c-0.1-3.7-0.2-7.4-0.2-11.2c-0.4-9.3,5.9-6.2,10.4-6.3C669,256.6,669,258.1,669,259.6z"/>
	<path class="st22" d="M657.3,327c4.2,0,8.5,0.2,12.7-0.2c6.1-0.5,7.8,2.1,5.3,7.7c-1.5,3.3-1.6,6.6-1.6,10c-4.4,0-8.9,0.6-13.2-0.2
		c-5.9-1.2-4.3-5.5-2.7-9.7C658.8,332.2,662,329.1,657.3,327z"/>
	<path class="st34" d="M676.8,280.5c0-2.1,0-4.2,0-6.3c6.6,1.5,13.5,1.1,19.9,4.6c2.8,1.6,4.6,3.5,6,6.2
		C693.9,284.4,684.8,286,676.8,280.5z"/>
</g>
</svg>
